<svg width="512" height="512" viewBox="0 0 512 512" fill="none" xmlns="http://www.w3.org/2000/svg">
<path d="M0 64C0 28.6538 28.6538 0 64 0H448C483.346 0 512 28.6538 512 64V448C512 483.346 483.346 512 448 512H64C28.6538 512 0 483.346 0 448V64Z" fill="white"/>
<g clip-path="url(#clip0_15468_15610)">
<path d="M373.674 372.357C373.674 385.586 369.733 395.997 361.849 403.591C354.024 411.184 343.148 414.98 329.217 414.98C317.54 414.98 308.115 412.429 300.942 407.327C293.77 402.226 289.235 394.84 287.339 385.169L303.522 383.302C305.241 389.471 308.264 394.127 312.591 397.273C316.918 400.357 322.579 401.9 329.573 401.9C338.168 401.9 344.895 399.318 349.757 394.158C354.617 388.937 357.047 381.789 357.047 372.711C357.047 364.822 354.588 358.444 349.668 353.58C344.806 348.715 338.228 346.282 329.93 346.282C325.602 346.282 321.571 346.966 317.836 348.329C314.102 349.695 310.367 352.007 306.634 355.271H290.985L295.163 287.818H366.383V301.433H309.746L307.344 341.211C314.28 335.871 322.904 333.202 333.218 333.202C341.458 333.202 348.602 334.862 354.648 338.186C360.693 341.447 365.375 346.017 368.696 351.889C372.015 357.762 373.674 364.584 373.674 372.357Z" fill="#181818"/>
<path d="M459.74 384.815V413.2H444.625V384.815H385.586V372.357L442.935 287.818H459.74V372.178H477.346V384.815H459.74ZM400.345 372.178H444.625V322.167C444.625 319.438 444.625 316.738 444.625 314.069C444.683 311.34 444.803 308.611 444.981 305.882C443.617 308.493 442.432 310.629 441.424 312.289C440.416 313.891 439.496 315.286 438.668 316.473L400.345 372.178Z" fill="#181818"/>
<path d="M165.984 215.253C120.274 205.425 86.7489 200.47 86.7489 164.432C86.7489 142.057 110.231 127.274 154.243 127.274C203.423 127.274 226.905 146.213 232.591 182.651H271.803C266.56 126.475 220.407 96.9092 154.243 96.9092C88.078 96.9092 47.6113 125.356 47.6113 168.187C47.6113 220.927 103.29 234.911 149.886 244.42C174.033 249.294 181.122 249.134 256.148 263.758C260.505 264.637 264.787 265.835 268.996 267.354L275.79 269.911C261.391 236.189 221.368 227.16 165.91 215.173L165.984 215.253Z" fill="#181818"/>
<path d="M143.579 291.99C189.289 302.212 222.813 307.365 222.813 344.845C222.813 368.114 199.332 383.489 155.32 383.489C106.14 383.489 82.6574 363.794 76.9714 325.898H37.7601C43.003 384.238 89.1558 415.069 155.32 415.069C221.485 415.069 261.952 385.483 261.952 340.939C261.952 286.09 206.273 271.547 159.677 261.658C135.53 256.589 128.441 256.755 53.415 241.547C49.0582 240.632 44.7753 239.386 40.5661 237.807L33.7725 235.147C48.1721 270.218 88.1958 279.609 143.653 292.074L143.579 291.99Z" fill="#181818"/>
</g>
<defs>
<clipPath id="clip0_15468_15610">
<rect width="445.091" height="320" fill="white" transform="translate(33.4541 96)"/>
</clipPath>
</defs>
</svg>
