<svg width="187" height="46" viewBox="0 0 187 46" fill="none" xmlns="http://www.w3.org/2000/svg">
<g clip-path="url(#clip0_15502_15599)">
<path d="M31.8453 3.40908H24.0381V0.489258H42.6055V3.40908H34.7982V26.5852H31.8453V3.40908Z" fill="white"/>
<path d="M57.2769 26.5852C51.3294 26.5852 48.7393 22.7938 48.7393 17.564V0.489258H51.5428V17.564C51.5428 21.7134 53.4119 23.7216 57.2769 23.7216C61.1419 23.7216 63.0111 21.7199 63.0111 17.564V0.489258H65.8146V17.564C65.8146 22.7871 63.2303 26.5852 57.2769 26.5852Z" fill="white"/>
<path d="M73.4404 0.489258H82.2233C88.9029 0.489258 93.0025 5.15963 93.0025 13.5541C93.0025 21.9486 88.9029 26.5852 82.2233 26.5852H73.4404V0.489258ZM76.4914 23.6654H82.2233C88.3945 23.6654 89.9515 18.6638 89.9515 13.5541C89.9515 8.44442 88.3945 3.40908 82.2233 3.40908H76.4914V23.6654Z" fill="white"/>
<path d="M103.613 0.489258V26.5852H100.629V0.489258H103.613Z" fill="white"/>
<path d="M116.019 20.0493L113.888 26.5852H110.741L119.674 0.489258H123.059L131.961 26.5852H128.814L126.683 20.0493H116.019ZM125.699 17.1295L121.398 3.51722H121.329L117.029 17.1295H125.692H125.699Z" fill="white"/>
<path d="M165.208 17.8507C165.208 20.5738 164.382 22.7169 162.732 24.2799C161.093 25.843 158.816 26.6244 155.899 26.6244C153.454 26.6244 151.48 26.0994 149.978 25.0492C148.477 23.999 147.527 22.4788 147.13 20.4883L150.518 20.1037C150.878 21.3736 151.511 22.3322 152.417 22.9795C153.323 23.6144 154.509 23.9318 155.973 23.9318C157.773 23.9318 159.182 23.4008 160.2 22.3384C161.217 21.2637 161.726 19.7924 161.726 17.9239C161.726 16.2999 161.211 14.9872 160.181 13.9859C159.163 12.9845 157.786 12.4839 156.048 12.4839C155.142 12.4839 154.298 12.6243 153.516 12.9052C152.734 13.186 151.952 13.6623 151.17 14.3339H147.893L148.768 0.449707H163.681V3.25218H151.822L151.319 11.4398C152.771 10.3408 154.577 9.7913 156.737 9.7913C158.462 9.7913 159.958 10.1332 161.224 10.817C162.49 11.4887 163.47 12.4289 164.165 13.6378C164.86 14.8467 165.208 16.251 165.208 17.8507Z" fill="white"/>
<path d="M183.23 20.4151V26.2581H180.065V20.4151H167.703V17.8507L179.711 0.449707H183.23V17.8141H186.917V20.4151H183.23ZM170.793 17.8141H180.065V7.52001C180.065 6.95829 180.065 6.40268 180.065 5.85318C180.077 5.29146 180.102 4.72975 180.14 4.16803C179.853 4.70532 179.606 5.14492 179.394 5.48684C179.183 5.81655 178.991 6.1035 178.817 6.34773L170.793 17.8141Z" fill="white"/>
<path d="M11.2697 9.91748C7.37304 9.09381 4.51509 8.67862 4.51509 5.65851C4.51509 3.7835 6.51692 2.54466 10.2688 2.54466C14.4613 2.54466 16.4631 4.13172 16.9478 7.18532H20.2904C19.8435 2.47769 15.9091 0 10.2688 0C4.6284 0 1.17871 2.38394 1.17871 5.97324C1.17871 10.3929 5.92518 11.5648 9.89736 12.3617C11.9558 12.7702 12.5602 12.7568 18.9559 13.9822C19.3273 14.0559 19.6925 14.1563 20.0512 14.2836L20.6305 14.4979C19.4029 11.6719 15.991 10.9152 11.2634 9.91078L11.2697 9.91748Z" fill="white"/>
<path d="M9.36074 16.4339C13.2574 17.2905 16.1153 17.7224 16.1153 20.8634C16.1153 22.8133 14.1135 24.1017 10.3616 24.1017C6.16914 24.1017 4.16732 22.4512 3.68261 19.2755H0.339932C0.78688 24.1644 4.72129 26.7482 10.3616 26.7482C16.002 26.7482 19.4516 24.2689 19.4516 20.5361C19.4516 15.9395 14.7052 14.7208 10.7331 13.892C8.67458 13.4672 8.07024 13.4811 1.67448 12.2067C1.30308 12.1301 0.937962 12.0256 0.579145 11.8933L0 11.6704C1.22753 14.6093 4.63946 15.3963 9.36703 16.441L9.36074 16.4339Z" fill="white"/>
<path d="M185.593 39.4531V40.1722H182.035V42.128H185.361V42.8208H182.035V44.9783H185.638V45.6974H181.198V39.4531H185.593Z" fill="white"/>
<path d="M174.4 39.4531H177.19C178.608 39.4531 179.321 40.032 179.321 41.1808C179.321 41.5491 179.215 41.8649 179.017 42.1456C178.822 42.4261 178.555 42.6104 178.233 42.698C178.447 42.7507 178.616 42.812 178.75 42.8997C178.875 42.9875 178.973 43.1103 179.036 43.268C179.089 43.4259 179.133 43.5663 179.152 43.689C179.17 43.8118 179.178 43.9959 179.196 44.2328C179.196 44.259 179.196 44.3205 179.205 44.4083C179.205 44.4958 179.215 44.5573 179.215 44.5924C179.215 44.6275 179.215 44.68 179.223 44.7589C179.231 44.8467 179.241 44.908 179.249 44.9431C179.249 44.9869 179.258 45.0396 179.276 45.1097C179.286 45.1799 179.303 45.2414 179.321 45.2852C179.339 45.3289 179.357 45.3816 179.384 45.4343C179.402 45.4868 179.429 45.5395 179.463 45.5834C179.49 45.6273 179.526 45.6623 179.561 45.6974H178.6C178.555 45.6447 178.518 45.5658 178.492 45.478C178.465 45.3904 178.447 45.2939 178.439 45.1712C178.421 45.0484 178.412 44.9519 178.412 44.8817C178.402 44.8116 178.394 44.6976 178.394 44.5573C178.386 44.4169 178.386 44.338 178.386 44.3205C178.349 43.7943 178.242 43.4347 178.046 43.2594C177.85 43.0839 177.476 42.9963 176.905 42.9963H175.238V45.6974H174.4V39.4531ZM175.238 40.1548V42.3385H176.816C177.011 42.3385 177.172 42.3385 177.307 42.3209C177.441 42.3121 177.592 42.2858 177.752 42.242C177.913 42.2069 178.038 42.1456 178.135 42.0666C178.233 41.9965 178.314 41.8825 178.386 41.7421C178.447 41.6018 178.484 41.4351 178.484 41.2335C178.484 40.8126 178.349 40.5319 178.091 40.3828C177.832 40.2337 177.484 40.1548 177.04 40.1548H175.238Z" fill="white"/>
<path d="M167.272 39.4531H168.12V43.3908C168.12 44.0047 168.252 44.4433 168.521 44.7239C168.788 45.0045 169.225 45.1448 169.83 45.1448C170.455 45.1448 170.891 45.0045 171.15 44.715C171.409 44.4345 171.543 43.9873 171.543 43.3908V39.4531H172.388V43.1716C172.388 44.0837 172.193 44.7589 171.81 45.1887C171.417 45.6185 170.757 45.8288 169.83 45.8288C168.922 45.8288 168.27 45.6273 167.869 45.2063C167.468 44.7853 167.272 44.1364 167.272 43.2594V39.4531Z" fill="white"/>
<path d="M165.906 39.4531V40.1722H163.775V45.6974H162.937V40.1722H160.807V39.4531H165.906Z" fill="white"/>
<path d="M159.489 39.4531V45.6974H158.651V39.4531H159.489Z" fill="white"/>
<path d="M151.357 39.4531H152.276L155.627 44.5223V39.4531H156.438V45.6974H155.493L152.16 40.6897V45.6974H151.357V39.4531Z" fill="white"/>
<path d="M144.229 39.4531H147.019C148.436 39.4531 149.149 40.032 149.149 41.1808C149.149 41.5491 149.042 41.8649 148.846 42.1456C148.65 42.4261 148.382 42.6104 148.062 42.698C148.276 42.7507 148.445 42.812 148.579 42.8997C148.703 42.9875 148.801 43.1103 148.864 43.268C148.917 43.4259 148.962 43.5663 148.98 43.689C148.998 43.8118 149.006 43.9959 149.024 44.2328C149.024 44.259 149.024 44.3205 149.033 44.4083C149.033 44.4958 149.042 44.5573 149.042 44.5924C149.042 44.6275 149.042 44.68 149.051 44.7589C149.06 44.8467 149.069 44.908 149.078 44.9431C149.078 44.9869 149.087 45.0396 149.104 45.1097C149.113 45.1799 149.131 45.2414 149.149 45.2852C149.167 45.3289 149.185 45.3816 149.212 45.4343C149.229 45.4868 149.256 45.5395 149.292 45.5834C149.318 45.6273 149.354 45.6623 149.39 45.6974H148.427C148.382 45.6447 148.347 45.5658 148.32 45.478C148.293 45.3904 148.276 45.2939 148.267 45.1712C148.249 45.0484 148.24 44.9519 148.24 44.8817C148.231 44.8116 148.222 44.6976 148.222 44.5573C148.213 44.4169 148.213 44.338 148.213 44.3205C148.177 43.7943 148.07 43.4347 147.874 43.2594C147.678 43.0839 147.304 42.9963 146.733 42.9963H145.066V45.6974H144.229V39.4531ZM145.066 40.1548V42.3385H146.644C146.84 42.3385 147.001 42.3385 147.134 42.3209C147.268 42.3121 147.42 42.2858 147.58 42.242C147.741 42.2069 147.865 42.1456 147.964 42.0666C148.062 41.9965 148.142 41.8825 148.213 41.7421C148.276 41.6018 148.311 41.4351 148.311 41.2335C148.311 40.8126 148.177 40.5319 147.919 40.3828C147.66 40.2337 147.313 40.1548 146.867 40.1548H145.066Z" fill="white"/>
<path d="M137.432 39.4531H138.278V43.3908C138.278 44.0047 138.412 44.4433 138.68 44.7239C138.947 45.0045 139.384 45.1448 139.99 45.1448C140.614 45.1448 141.051 45.0045 141.309 44.715C141.568 44.4345 141.701 43.9873 141.701 43.3908V39.4531H142.548V43.1716C142.548 44.0837 142.352 44.7589 141.969 45.1887C141.577 45.6185 140.917 45.8288 139.99 45.8288C139.081 45.8288 138.43 45.6273 138.029 45.2063C137.628 44.7853 137.432 44.1364 137.432 43.2594V39.4531Z" fill="white"/>
<path d="M136.187 39.4531V40.1722H132.853V42.1192H135.794V42.812H132.853V45.6974H132.015V39.4531H136.187Z" fill="white"/>
<path d="M126.36 45.7258V39.4497H126.998V45.7258H126.36Z" fill="white"/>
<path d="M116.378 39.4531H117.296L120.648 44.5223V39.4531H121.459V45.6974H120.514L117.18 40.6897V45.6974H116.378V39.4531Z" fill="white"/>
<path d="M114.573 42.3913L114.564 45.7063H114.029L113.815 44.9259C113.307 45.5398 112.621 45.8554 111.765 45.8554C110.865 45.8554 110.134 45.5572 109.581 44.9609C109.028 44.3646 108.752 43.5928 108.752 42.6369C108.752 41.681 109.019 40.8918 109.572 40.269C110.125 39.6375 110.873 39.3306 111.836 39.3306C112.273 39.3306 112.683 39.4009 113.066 39.5499C113.441 39.699 113.771 39.9358 114.038 40.2514C114.305 40.5672 114.457 40.9443 114.493 41.374H113.672C113.601 40.9705 113.405 40.6373 113.066 40.3919C112.728 40.1462 112.318 40.0148 111.827 40.0148C111.141 40.0148 110.597 40.2514 110.196 40.7163C109.786 41.1811 109.59 41.8125 109.59 42.6019C109.59 43.3911 109.786 44.0138 110.196 44.4698C110.597 44.9347 111.141 45.1627 111.827 45.1627C112.469 45.1627 112.951 44.9784 113.289 44.5926C113.628 44.2068 113.806 43.698 113.824 43.0667H111.792V42.3913H114.573Z" fill="white"/>
<path d="M106.937 39.4531V45.6974H106.1V39.4531H106.937Z" fill="white"/>
<path d="M104.161 41.2863L103.341 41.2951C103.252 40.4444 102.726 40.0234 101.763 40.0234C101.308 40.0234 100.952 40.1112 100.702 40.2953C100.453 40.4708 100.328 40.7251 100.328 41.0583C100.328 41.1723 100.346 41.2775 100.381 41.3652C100.417 41.453 100.479 41.5231 100.568 41.5932C100.658 41.6634 100.738 41.7161 100.809 41.7687C100.889 41.8125 101.014 41.8563 101.175 41.9002C101.344 41.9529 101.478 41.9879 101.576 42.0054C101.683 42.023 101.834 42.0581 102.048 42.102C102.316 42.1545 102.53 42.2072 102.699 42.251C102.877 42.2949 103.082 42.365 103.314 42.4614C103.555 42.5668 103.742 42.672 103.885 42.7948C104.027 42.9174 104.143 43.0753 104.25 43.2683C104.357 43.47 104.402 43.698 104.402 43.9437C104.402 44.3821 104.277 44.7504 104.027 45.0487C103.778 45.3468 103.474 45.5486 103.118 45.6626C102.761 45.7852 102.369 45.8379 101.932 45.8379C101.139 45.8379 100.506 45.6538 100.025 45.2853C99.5434 44.9171 99.3027 44.3646 99.3027 43.6367H100.114C100.132 44.1717 100.319 44.5574 100.658 44.803C101.005 45.0487 101.451 45.1713 102.004 45.1713C102.44 45.1713 102.815 45.0749 103.127 44.8996C103.43 44.7241 103.59 44.4348 103.59 44.0313C103.59 43.8383 103.546 43.6804 103.466 43.549C103.376 43.4174 103.252 43.3122 103.073 43.2244C102.895 43.1368 102.717 43.0753 102.539 43.0228C102.36 42.9701 102.12 42.9088 101.834 42.8473C101.79 42.8387 101.763 42.8299 101.745 42.8211C101.086 42.6808 100.658 42.558 100.462 42.4702C99.8375 42.2072 99.5345 41.7599 99.5345 41.111C99.5345 40.5145 99.7573 40.0761 100.203 39.778C100.649 39.4798 101.192 39.3306 101.825 39.3306C102.521 39.3306 103.082 39.4973 103.492 39.8218C103.911 40.155 104.134 40.6373 104.161 41.2863Z" fill="white"/>
<path d="M98.2267 39.4531V40.1722H94.6699V42.128H97.9949V42.8208H94.6699V44.9783H98.2713V45.6974H93.832V39.4531H98.2267Z" fill="white"/>
<path d="M87.2832 39.4531H89.3424C90.4209 39.4531 91.2143 39.6988 91.7225 40.1898C92.2394 40.6809 92.489 41.4615 92.489 42.5227C92.489 43.575 92.2573 44.3644 91.7758 44.8993C91.3034 45.4343 90.5457 45.6974 89.5028 45.6974H87.2832V39.4531ZM88.1123 40.1636L88.1211 44.9957H89.3959C90.1892 44.9957 90.7686 44.8028 91.1252 44.4169C91.4817 44.031 91.66 43.4347 91.66 42.6191C91.66 41.7685 91.4907 41.1458 91.1341 40.7511C90.7865 40.3652 90.1892 40.1636 89.3513 40.1636H88.1123Z" fill="white"/>
<path d="M81.7959 45.7258V39.4497H82.4338V45.7258H81.7959Z" fill="white"/>
<path d="M76.8829 39.4531V40.1722H73.3261V42.128H76.651V42.8208H73.3261V44.9783H76.9274V45.6974H72.4883V39.4531H76.8829Z" fill="white"/>
<path d="M65.6709 39.4531H68.461C69.8782 39.4531 70.5914 40.032 70.5914 41.1808C70.5914 41.5491 70.4845 41.8649 70.2884 42.1456C70.0923 42.4261 69.8249 42.6104 69.5039 42.698C69.7178 42.7507 69.8872 42.812 70.021 42.8997C70.1456 42.9875 70.2438 43.1103 70.3061 43.268C70.3597 43.4259 70.4043 43.5663 70.422 43.689C70.4399 43.8118 70.4488 43.9959 70.4666 44.2328C70.4666 44.259 70.4666 44.3205 70.4755 44.4083C70.4755 44.4958 70.4845 44.5573 70.4845 44.5924C70.4845 44.6275 70.4845 44.68 70.4934 44.7589C70.5022 44.8467 70.5112 44.908 70.5201 44.9431C70.5201 44.9869 70.5291 45.0396 70.5468 45.1097C70.5558 45.1799 70.5735 45.2414 70.5914 45.2852C70.6093 45.3289 70.6271 45.3816 70.6538 45.4343C70.6717 45.4868 70.6983 45.5395 70.734 45.5834C70.7608 45.6273 70.7965 45.6623 70.8321 45.6974H69.8694C69.8249 45.6447 69.7892 45.5658 69.7624 45.478C69.7357 45.3904 69.7178 45.2939 69.709 45.1712C69.6911 45.0484 69.6821 44.9519 69.6821 44.8817C69.6733 44.8116 69.6644 44.6976 69.6644 44.5573C69.6554 44.4169 69.6554 44.338 69.6554 44.3205C69.6198 43.7943 69.5129 43.4347 69.3167 43.2594C69.1206 43.0839 68.7463 42.9963 68.1757 42.9963H66.5088V45.6974H65.6709V39.4531ZM66.5088 40.1548V42.3385H68.0866C68.2826 42.3385 68.4431 42.3385 68.5769 42.3209C68.7105 42.3121 68.8622 42.2858 69.0225 42.242C69.183 42.2069 69.3078 42.1456 69.4059 42.0666C69.5039 41.9965 69.5841 41.8825 69.6554 41.7421C69.7178 41.6018 69.7536 41.4351 69.7536 41.2335C69.7536 40.8126 69.6198 40.5319 69.3613 40.3828C69.1027 40.2337 68.7551 40.1548 68.3095 40.1548H66.5088Z" fill="white"/>
<path d="M58.5215 39.4531H59.3683V43.3908C59.3683 44.0047 59.5021 44.4433 59.7695 44.7239C60.0369 45.0045 60.4737 45.1448 61.0798 45.1448C61.7038 45.1448 62.1406 45.0045 62.3991 44.715C62.6575 44.4345 62.7913 43.9873 62.7913 43.3908V39.4531H63.6381V43.1716C63.6381 44.0837 63.442 44.7589 63.0587 45.1887C62.6665 45.6185 62.0068 45.8288 61.0798 45.8288C60.1705 45.8288 59.5198 45.6273 59.1186 45.2063C58.7176 44.7853 58.5215 44.1364 58.5215 43.2594V39.4531Z" fill="white"/>
<path d="M56.9698 39.4531V40.1722H54.8394V45.6974H54.0015V40.1722H51.8711V39.4531H56.9698Z" fill="white"/>
<path d="M50.5748 43.3384C50.5035 44.1277 50.2182 44.7504 49.7369 45.1888C49.2555 45.6274 48.6138 45.8466 47.8203 45.8466C46.92 45.8466 46.207 45.5571 45.681 44.9696C45.1461 44.382 44.8877 43.5839 44.8877 42.5841C44.8877 41.6546 45.1461 40.874 45.681 40.2513C46.2158 39.6288 46.9468 39.313 47.8916 39.313C48.5602 39.313 49.1486 39.4971 49.6567 39.848C50.1736 40.2076 50.4589 40.6987 50.5124 41.33H49.6744C49.5854 40.9267 49.3714 40.6021 49.0504 40.3741C48.7297 40.1461 48.3374 40.0233 47.8649 40.0233C47.1607 40.0233 46.6259 40.2689 46.2693 40.76C45.9127 41.2511 45.7345 41.8562 45.7345 42.5755C45.7345 43.3735 45.9217 43.9961 46.305 44.4521C46.6793 44.9081 47.2053 45.1361 47.8649 45.1361C48.3997 45.1361 48.8366 44.9871 49.1575 44.6801C49.4783 44.3732 49.6655 43.9259 49.7369 43.3384H50.5748Z" fill="white"/>
<path d="M43.463 39.4531V40.1722H39.9062V42.128H43.2313V42.8208H39.9062V44.9783H43.5076V45.6974H39.0684V39.4531H43.463Z" fill="white"/>
<path d="M37.5177 39.4531V40.1722H35.3872V45.6974H34.5494V40.1722H32.4189V39.4531H37.5177Z" fill="white"/>
<path d="M30.7627 39.4531V45.6974H29.9248V39.4531H30.7627Z" fill="white"/>
<path d="M27.3058 39.4531V45.6974H26.4679V42.7769H23.1162V45.6974H22.2783V39.4531H23.1162V42.0578H26.4679V39.4531H27.3058Z" fill="white"/>
<path d="M19.8191 43.3384C19.7476 44.1277 19.4625 44.7504 18.981 45.1888C18.4998 45.6274 17.8579 45.8466 17.0646 45.8466C16.1642 45.8466 15.4511 45.5571 14.9252 44.9696C14.3903 44.382 14.1318 43.5839 14.1318 42.5841C14.1318 41.6546 14.3903 40.874 14.9252 40.2513C15.46 39.6288 16.191 39.313 17.1359 39.313C17.8045 39.313 18.3927 39.4971 18.9008 39.848C19.4179 40.2076 19.7032 40.6987 19.7566 41.33H18.9187C18.8295 40.9267 18.6157 40.6021 18.2947 40.3741C17.9738 40.1461 17.5815 40.0233 17.109 40.0233C16.4049 40.0233 15.8701 40.2689 15.5135 40.76C15.157 41.2511 14.9787 41.8562 14.9787 42.5755C14.9787 43.3735 15.1659 43.9961 15.5492 44.4521C15.9236 44.9081 16.4495 45.1361 17.109 45.1361C17.644 45.1361 18.0807 44.9871 18.4016 44.6801C18.7226 44.3732 18.9098 43.9259 18.981 43.3384H19.8191Z" fill="white"/>
<path d="M7.48047 39.4531H10.2706C11.6879 39.4531 12.401 40.032 12.401 41.1808C12.401 41.5491 12.294 41.8649 12.0979 42.1456C11.9018 42.4261 11.6344 42.6104 11.3135 42.698C11.5274 42.7507 11.6968 42.812 11.8305 42.8997C11.9553 42.9875 12.0534 43.1103 12.1158 43.268C12.1692 43.4259 12.2138 43.5663 12.2316 43.689C12.2495 43.8118 12.2584 43.9959 12.2762 44.2328C12.2762 44.259 12.2762 44.3205 12.2851 44.4083C12.2851 44.4958 12.294 44.5573 12.294 44.5924C12.294 44.6275 12.294 44.68 12.303 44.7589C12.3119 44.8467 12.3208 44.908 12.3297 44.9431C12.3297 44.9869 12.3386 45.0396 12.3564 45.1097C12.3654 45.1799 12.3832 45.2414 12.401 45.2852C12.4188 45.3289 12.4367 45.3816 12.4634 45.4343C12.4812 45.4868 12.508 45.5395 12.5436 45.5834C12.5704 45.6273 12.606 45.6623 12.6417 45.6974H11.679C11.6344 45.6447 11.5987 45.5658 11.572 45.478C11.5453 45.3904 11.5274 45.2939 11.5185 45.1712C11.5007 45.0484 11.4918 44.9519 11.4918 44.8817C11.4829 44.8116 11.474 44.6976 11.474 44.5573C11.465 44.4169 11.465 44.338 11.465 44.3205C11.4294 43.7943 11.3224 43.4347 11.1263 43.2594C10.9302 43.0839 10.5558 42.9963 9.98531 42.9963H8.31839V45.6974H7.48047V39.4531ZM8.31839 40.1548V42.3385H9.89617C10.0923 42.3385 10.2527 42.3385 10.3864 42.3209C10.5201 42.3121 10.6717 42.2858 10.8321 42.242C10.9926 42.2069 11.1174 42.1456 11.2154 42.0666C11.3135 41.9965 11.3937 41.8825 11.465 41.7421C11.5274 41.6018 11.5631 41.4351 11.5631 41.2335C11.5631 40.8126 11.4294 40.5319 11.1709 40.3828C10.9124 40.2337 10.5647 40.1548 10.119 40.1548H8.31839Z" fill="white"/>
<path d="M3.44082 39.4531L5.91891 45.6974H4.98295L4.27874 43.7855H1.61344L0.891403 45.6974H0L2.49594 39.4531H3.44082ZM4.02914 43.1278L2.95054 40.2425L1.85412 43.1278H4.02914Z" fill="white"/>
</g>
<defs>
<clipPath id="clip0_15502_15599">
<rect width="187" height="46" fill="white"/>
</clipPath>
</defs>
</svg>
