<svg width="284" height="41" viewBox="0 0 284 41" fill="none" xmlns="http://www.w3.org/2000/svg">
<g clip-path="url(#clip0_15137_17260)">
<path d="M48.3638 5.18784H36.5068V0.744629H64.7054V5.18784H52.8484V40.4558H48.3638V5.18784Z" fill="white"/>
<path d="M86.9878 40.4558C77.9552 40.4558 74.0215 34.6863 74.0215 26.7279V0.744629H78.2792V26.7279C78.2792 33.0422 81.118 36.0983 86.9878 36.0983C92.8576 36.0983 95.6964 33.0522 95.6964 26.7279V0.744629H99.9541V26.7279C99.9541 34.6761 96.0292 40.4558 86.9878 40.4558Z" fill="white"/>
<path d="M111.535 0.744629H124.874C135.018 0.744629 141.244 7.85172 141.244 20.6259C141.244 33.4001 135.018 40.4558 124.874 40.4558H111.535V0.744629ZM116.169 36.0126H124.874C134.246 36.0126 136.611 28.4015 136.611 20.6259C136.611 12.8503 134.246 5.18784 124.874 5.18784H116.169V36.0126Z" fill="white"/>
<path d="M157.358 0.744629V40.4558H152.826V0.744629H157.358Z" fill="white"/>
<path d="M176.201 30.5099L172.964 40.4558H168.185L181.751 0.744629H186.892L200.412 40.4558H195.632L192.395 30.5099H176.201ZM190.901 26.0667L184.37 5.35239H184.265L177.734 26.0667H190.891H190.901Z" fill="white"/>
<path d="M250.904 27.1643C250.904 31.3081 249.65 34.5694 247.143 36.9479C244.655 39.3266 241.196 40.5157 236.766 40.5157C233.052 40.5157 230.055 39.7167 227.774 38.1186C225.493 36.5205 224.051 34.2071 223.448 31.1781L228.594 30.5929C229.141 32.5253 230.102 33.9839 231.479 34.969C232.854 35.9352 234.655 36.4182 236.879 36.4182C239.612 36.4182 241.752 35.6101 243.298 33.9934C244.843 32.358 245.616 30.119 245.616 27.2757C245.616 24.8044 244.834 22.8068 243.269 21.2831C241.723 19.7593 239.631 18.9974 236.992 18.9974C235.616 18.9974 234.334 19.2111 233.147 19.6385C231.959 20.0659 230.772 20.7906 229.584 21.8127H224.607L225.937 0.68457H248.585V4.9492H230.574L229.81 17.4086C232.016 15.7362 234.758 14.9 238.038 14.9C240.658 14.9 242.93 15.4204 244.853 16.461C246.775 17.483 248.264 18.9138 249.32 20.7535C250.376 22.5931 250.904 24.7301 250.904 27.1643Z" fill="white"/>
<path d="M278.274 31.0667V39.9582H273.468V31.0667H254.693V27.1643L272.929 0.68457H278.274V27.1087H283.874V31.0667H278.274ZM259.386 27.1087H273.468V11.4437C273.468 10.5889 273.468 9.74343 273.468 8.90724C273.486 8.05246 273.523 7.19767 273.581 6.34289C273.146 7.1605 272.771 7.82946 272.448 8.34977C272.129 8.8515 271.837 9.28817 271.572 9.65982L259.386 27.1087Z" fill="white"/>
<path d="M17.1153 15.0918C11.1975 13.8384 6.85705 13.2066 6.85705 8.61078C6.85705 5.7575 9.89726 3.87231 15.5952 3.87231C21.9625 3.87231 25.0027 6.2874 25.7388 10.9342H30.8153C30.1366 3.7704 24.1614 0 15.5952 0C7.02914 0 1.79004 3.62774 1.79004 9.08972C1.79004 15.8153 8.99858 17.5986 15.0312 18.8113C18.1574 19.4329 19.0752 19.4125 28.7886 21.2773C29.3525 21.3894 29.9072 21.5423 30.452 21.7359L31.3317 22.062C29.4674 17.7617 24.2856 16.6101 17.1058 15.0816L17.1153 15.0918Z" fill="white"/>
<path d="M14.2163 25.0081C20.1342 26.3117 24.4746 26.9689 24.4746 31.7486C24.4746 34.7158 21.4344 36.6765 15.7364 36.6765C9.36918 36.6765 6.32897 34.1648 5.59284 29.3322H0.516261C1.19505 36.7718 7.17029 40.7037 15.7364 40.7037C24.3025 40.7037 29.5415 36.9309 29.5415 31.2505C29.5415 24.2558 22.3331 22.4011 16.3005 21.14C13.1742 20.4935 12.2564 20.5147 2.54306 18.5753C1.979 18.4587 1.4245 18.2998 0.879556 18.0984L0 17.7593C1.86428 22.2316 7.04602 23.4291 14.2259 25.0188L14.2163 25.0081Z" fill="white"/>
</g>
<defs>
<clipPath id="clip0_15137_17260">
<rect width="284" height="41" fill="white"/>
</clipPath>
</defs>
</svg>
